<?xml version="1.0" encoding="UTF-8"?><svg xmlns="http://www.w3.org/2000/svg" viewBox="0 0 1463.32 1152"><defs><style>.d{fill:#fff;}.e{fill:#6f4975;}.f{fill:#ff443c;}.g{fill:#c8c1e1;}.h{opacity:.5;}.i{fill:#ff8548;}.j{fill:#020202;}.k{fill:#deebe9;}.l{fill:#ffba41;}.m{fill:#f18c7e;}.n{opacity:.3;}.o{fill:#fdad9b;}.p{fill:#786ab5;}.q{fill:#66192d;}.r{fill:#060633;}.s{fill:#553e93;}</style></defs><g id="a"/><g id="b"><g id="c"><g><ellipse class="g" cx="731.66" cy="1023.56" rx="731.66" ry="128.44"/><g><polygon class="q" points="199.18 971.01 181.77 974.55 182.86 753.5 196.25 759.17 199.18 971.01"/><path class="q" d="M250.64,983.3s-92.21,1.65-122.94,1.89c-3.4,.03-5.83-4.64-5.83-8.04h0c0-3.39,4.96-7.43,8.35-7.41,30.11,.16,120.42,1.26,120.42,1.26,3.4,0,6.15,2.75,6.15,6.15h0c0,3.4-2.75,6.15-6.15,6.15Z"/><path class="q" d="M126.27,994.34c1.12-6.74,7.03-11.03,13.87-11.03s13.87,4.51,13.87,11.35c0,8.51-8.61,14.5-15.45,14.5s-13.71-6.31-12.29-14.82Z"/><path class="q" d="M224.62,994.34c1.12-6.74,7.03-11.03,13.87-11.03s13.87,4.51,13.87,11.35c0,8.51-8.61,14.5-15.45,14.5s-13.71-6.31-12.29-14.82Z"/><path class="q" d="M147.87,760.59s-3.31,14.66,30.74,19.39c34.05,4.73,48.7-19.39,48.7-19.39h-79.44Z"/></g><g><g><path class="p" d="M946.4,146.56C946.4,59.81,869.28,0,783.36,0c-124.42,0-167.15,70.33-167.15,157.08s98.6,148.19,184.52,148.19,145.67-71.96,145.67-158.71Z"/><path class="p" d="M973.59,285.8s-54.38-8.48-58.27-63.07l-42.73,31.54s20.39,50.17,101,31.54Z"/></g><path class="q" d="M803.2,323.6c-42.97,0-89.69-15.6-124.98-41.73-38.94-28.83-60.38-66.94-60.38-107.3,0-47.38,12.49-84.94,37.14-111.64,28.34-30.71,72.37-46.28,130.85-46.28,42.96,0,83.55,14.54,114.28,40.95,31.98,27.48,49.59,65.29,49.59,106.45,0,34.79-9.45,67.56-27.32,94.8,12.9,36.83,53.39,43.55,53.8,43.61l4.3,.67-4.24,.98c-24.54,5.67-59.06,8.29-84.6-11.22-24.95,20.09-55.52,30.7-88.45,30.7Zm-17.36-305.27c-58,0-101.61,15.39-129.62,45.74-24.35,26.38-36.7,63.56-36.7,110.5,0,39.82,21.2,77.45,59.7,105.95,35.01,25.92,81.36,41.4,123.98,41.4,32.77,0,63.17-10.63,87.91-30.75l.52-.42,.53,.41c13.45,10.48,38.15,20.9,80,12.13-10.64-2.7-40.75-12.97-51.49-44.29l-.13-.39,.23-.34c17.84-27.04,27.27-59.62,27.27-94.22,0-40.67-17.4-78.02-49.01-105.18-30.43-26.15-70.62-40.55-113.19-40.55Z"/></g><path class="s" d="M256.75,738.25c.36-41.17-1.45-218.21-59.05-233.63-65.22-17.47-148.83-49.2-173.4,8.15-24.56,57.35,57.72,234,57.72,234,0,0,4.57,15.69,21.24,17.45,16.67,1.75,221.97,7.9,222.29,0,.21-5.04-39.77-17.55-68.79-25.96Z"/><g class="h"><path class="p" d="M1409.53,255.96c-1.44-31.19-29.46-57.56-60.68-57.56-44.23,0-58.74,33.89-60.49,65.06-1.81,32.38,26.73,54.54,57.95,54.54s65.01-23.29,63.22-62.04Z"/><path class="d" d="M1398.56,259.23c0-24.84-24.79-51.29-49.61-52.09-36.72-1.18-51.62,36.08-51.62,60.92s25.64,39.64,50.47,39.64,50.76-23.64,50.76-48.47Z"/><path class="p" d="M1354.26,258.39c-.33-3.39-3.94-5.65-7.34-5.65s-7.06,4.11-7.06,7.51,3.66,6.19,7.06,6.19,7.96-1.77,7.34-8.05Z"/><g><path class="p" d="M1346.92,261.5h-1.23c-.68,0-1.22-.55-1.22-1.22s-1.54-2.97-.87-2.97l.69-1.44,1.47-33.55-1.53,.94c-.39,.56-1.15,.69-1.7,.31-.56-.38-.7-1.15-.31-1.7l3.77-5.46c.3-.44,.86-.63,1.37-.47,.51,.16,.86,.63,.86,1.17l2.04,43.09c0,.67-2.66,1.31-3.33,1.31Z"/><path class="p" d="M1351.15,223.43c-.35,0-.71-.15-.95-.45l-4.65-3.33c-.43-.53,.14-3.08,.66-3.51,.52-.43,1.29-.35,1.72,.18l4.16,5.11c.43,.52,.35,1.3-.18,1.72-.23,.19-.5,.27-.77,.27Z"/></g><g><path class="p" d="M1324.73,265.46c-.32,0-.64-.13-.88-.37l-3.64-3.77c-.34-.35-.44-.88-.25-1.33,.19-.45,.64-.74,1.13-.74h0l28.89-1.52c.67,0,1.06,2.13,1.06,2.81v1.23c0,.68-.55,1.22-1.22,1.22s-2.2,.61-2.2-.07l.98-1.17-24.61-.06,1.63,1.69c.47,.49,.46,1.26-.03,1.73-.24,.23-.55,.34-.85,.34Z"/><path class="p" d="M1321.1,261.69c-.27,0-.55-.09-.77-.28-.52-.43-.6-1.2-.17-1.72l3.4-4.16c.43-.52,1.2-.6,1.72-.17,.52,.43,.6,1.2,.17,1.72l-1.34,3.12c-.24,.3-2.66,1.5-3.01,1.5Z"/></g></g><g><path class="o" d="M363.71,378.06l98.47,116.32s-111.75,29.45-110.66,27.49c1.09-1.96-19.85-126.79-19.85-126.79l32.05-17.02Z"/><path class="q" d="M458.57,1006.28s-.61,20.65,13.03,27.23c13.64,6.58,53.78,14.03,37.95,26.47-9.08,7.13-49.67,0-61.2-.64-11.53-.63-22.64,3.81-30.79-4.38-8.97-9.01,2.77-50.76,2.77-50.76,0,0,9.67,5.73,18.63,5.98,12.92,.37,19.61-3.9,19.61-3.9Z"/><path class="q" d="M572.86,996.18s-.61,20.65,13.03,27.23c13.64,6.58,53.78,14.03,37.95,26.47-9.08,7.13-49.67-.01-61.2-.64-11.53-.63-22.64,3.81-30.79-4.38-8.97-9.01,2.77-50.76,2.77-50.76,0,0,9.67,5.73,18.63,5.98,12.92,.37,19.61-3.9,19.61-3.9Z"/><path class="l" d="M599.17,972.04c-10.21-135.28-12.62-226.56-55.43-285.2-46.85-64.18-172.46-109.58-220.89-112.41-78.98-4.62-116.2,7.14-116.2,7.14-59.28,123.28,33.58,139.64,102.27,143.01,2.27,.11,4.55,.24,6.83,.38,41.59,2.62,115.53,13.18,143.52,54.5,22.16,32.72,37.54,78.66,44.03,197.16,1.24,22.74,20.32,40.37,43.08,39.75,0,0,56.46,4.32,52.79-44.34Z"/><path class="l" d="M487.06,979c1.35-135.66,5.56-204.91-35.16-265.03-26.16-38.62-65.49-67.78-116.92-86.65-36.7-13.47-79.87-21.74-128.3-24.57-78.98-4.62-114.47-14.16-114.47-14.16-63.92,157.81,169.9,124.31,230.77,191.55,26.53,29.3,59.39,85.01,65.87,203.51,1.24,22.74,20.32,40.37,43.08,39.75,0,0,54.63,5.2,55.13-44.4Z"/><path class="j" d="M486.68,845.76c-.04-.81-4.05-81.28-17.54-109.39-17.06-35.57-66.59-72.7-117.76-88.31l.27-.87c51.39,15.67,101.15,53.01,118.31,88.78,13.56,28.27,17.58,108.93,17.62,109.74l-.9,.04Z"/><path class="i" d="M148.24,338.03s33.6-57.44,111.06-39.81c77.46,17.63,109.02,96.74,114.57,286.73,0,0-71.71-2.64-260.12,59.86-22.32,7.4-55.05,1.53-43.59-36.49,21.3-70.67,41.93-211.62,78.09-270.29Z"/><path class="i" d="M63.03,354.81l79.67,14.98s139.32,41.2,178.32,41.53c39,.33,55.14-28.2,55.14-28.2,0,0-31.46-53.39-97.38-78.59-6.19-2.38-12.68-4.49-19.48-6.3-11.42-3.02-23.03-5.67-34.64-5.8-131.52-1.51-161.63,62.38-161.63,62.38Z"/><path class="q" d="M63.03,354.81c-1.72,6.28,14.98,16.76,37.3,23.41,22.33,6.65,41.82,6.95,43.54,.66,1.72-6.28-14.98-16.76-37.3-23.41-22.33-6.65-41.82-6.95-43.54-.67Z"/><path class="o" d="M261.09,609.56s44.77-2.55,56.33,7.05c11.56,9.6,19.07,30.6,10.64,26.17-8.43-4.43-17.64-13.07-17.64-13.07,0,0,18.8,19.37,12.37,21.81-6.44,2.44-22.63-14.57-22.63-14.57,0,0,20.54,24.84,13.71,25.17-6.82,.33-22.29-18.65-22.29-18.65,0,0,18.19,23.87,10.25,24.07-7.93,.2-14.9-19.83-21.34-17.39-6.44,2.44-24.86,16.47-33.81-.59l14.4-40.02Z"/><path class="o" d="M96.06,560.17c32.97,53.98,75.18,75.66,150.62,89.41l14.41-40.01c-54.92-10.01-83.05-49.77-105.16-85.96-31.43-51.49-25.77-114.21-21.06-141.93,.45-2.63-.59-5.27-2.71-6.9-7.02-5.38-25.22-16.32-57.73-16.96-2.89-.06-5.46,1.88-6.2,4.68-13.6,51.23-13.7,129.67,27.82,197.66Z"/><g class="n"><path class="m" d="M112.64,549.21c-1.33,0-2.71-.28-4.09-.84-3.87-1.56-7.34-5.23-9.27-9.82h0c-3.38-8.01-1.29-16.6,4.67-19.15,2.36-1.01,5.02-.97,7.68,.1,3.87,1.56,7.34,5.23,9.27,9.82,3.38,8.01,1.29,16.6-4.67,19.15-1.14,.49-2.35,.73-3.59,.73Zm-5.1-27.91c-.9,0-1.76,.17-2.57,.52-4.64,1.98-6.11,9.03-3.29,15.72h0c1.67,3.96,4.6,7.1,7.84,8.41,2.01,.81,3.97,.85,5.68,.13,4.64-1.98,6.11-9.03,3.29-15.72-1.67-3.96-4.6-7.1-7.84-8.41-1.06-.43-2.11-.64-3.11-.64Z"/></g><g><path class="q" d="M264.35,271.3l-.3-.79c.09-.03,9.03-3.47,10.84-10.1,.94-3.44-.2-7.18-3.37-11.11-1.49-1.85-2.86-3.52-4.12-5.05-8.66-10.55-11.9-14.5-11.13-24.13l.85,.07c-.74,9.3,2.2,12.88,10.94,23.53,1.26,1.53,2.63,3.2,4.12,5.06,3.36,4.16,4.54,8.15,3.53,11.87-1.92,7.05-10.98,10.52-11.36,10.67Z"/><path class="q" d="M256.7,220.14s-1.35,14.94,10.22,28.92c11.57,13.98,2.51,26.43-11.27,22.25-13.79-4.18-16.64,13.08-34.49,6.02-17.85-7.06,35.54-57.19,35.54-57.19Z"/><path class="o" d="M187.82,293.84c7.14-1.71,12.85-6.72,14.88-13.78l6.27-21.85,1.83-6.39,10.77-37.55,2.06,37.22,1.23,22.34,.35,6.29c.29,5.21,4.87,12.8,10.08,13.06,0,0,7.89,9.19-2.9,14.21-12.68,5.9-35.7-2.17-44.96-13.52l.39-.04Z"/><path class="q" d="M208.85,257.6c.03,.2,.07,.4,.12,.61,2.4,11.78,15.83,15.7,15.83,15.7l.07-.08-1.23-22.34c-4.07-.93-9.79-1.68-12.83,.33-1.59,1.05-2.44,2.85-1.95,5.78Z"/><path class="o" d="M258.65,215.53c-3.02-23.61-20.98-40.77-40.12-38.32-19.14,2.45-32.2,23.57-29.18,47.18,3.02,23.61,20.98,40.77,40.12,38.32,19.14-2.45,32.2-23.57,29.18-47.18Z"/><path class="o" d="M194.81,230.25c4.4,3.25,9.94,2.93,12.37-.71,2.43-3.64,.82-9.22-3.58-12.46-4.4-3.25-9.94-2.93-12.37,.71-2.43,3.64-.82,9.22,3.58,12.46Z"/><path class="r" d="M227.4,219.95c.22-.09,.4-.28,.47-.54,.11-.42-.14-.86-.57-.97-.25-.06-5.9-2.12-9.91,3.58-.25,.36-.18,.85,.17,1.11,.35,.26,.78,.12,1.11-.17,3.31-2.89,8.02-3.03,8.23-2.98,.17,.05,.35,.03,.5-.03Z"/><path class="r" d="M222.27,229.41c.18,1.89,1.44,3.31,2.81,3.18,1.37-.13,2.33-1.77,2.15-3.65-.18-1.89-1.44-3.31-2.81-3.18s-2.33,1.77-2.15,3.66Z"/><path class="r" d="M256.06,220.46c.24,0,.48-.11,.63-.32,.26-.35,.19-.85-.16-1.11-.21-.15-4.65-4.2-10.53-.47-.37,.23-.49,.72-.27,1.09,.23,.37,.68,.41,1.09,.27,4.16-1.42,8.57,.25,8.75,.38,.14,.11,.31,.16,.48,.16Z"/><path class="r" d="M247.72,227.25c-.55,1.81,.07,3.61,1.38,4.01,1.32,.4,2.83-.75,3.38-2.56,.55-1.81-.07-3.61-1.38-4.01-1.32-.4-2.83,.74-3.38,2.56Z"/><path class="q" d="M234.24,183.08s1.15,14.93-17.05,19.83c-18.2,4.9-29.97,14.37-25.78,27.39,4.19,13.03,37.59,36.89,17.02,50.42-20.57,13.53-18.46-7.06-41.66,.62-23.2,7.68-31.55-23.54-17.53-44.07,14.02-20.53,1.15-68.47,62.85-74.16,61.7-5.69,45.47,46.2,45.47,46.2,0,0-21.27-9.83-23.32-26.22Z"/><path class="d" d="M202.46,284.27l-.25-.44c4.3-2.41,6.63-5.34,7.13-8.97,1.39-10.04-12.03-23.49-23.87-35.36-3.14-3.15-6.11-6.12-8.77-8.99-7.41-7.97-9.3-18.37-4.94-27.14,4.84-9.74,15.74-14.99,28.44-13.71,12.27,1.24,20.14-2.29,24.58-5.46,4.81-3.44,6.75-7.23,6.77-7.27l.45,.23c-.08,.15-8.02,15.41-31.85,13.01-12.49-1.26-23.2,3.88-27.94,13.43-4.33,8.7-2.51,18.64,4.86,26.57,2.66,2.86,5.62,5.83,8.76,8.97,11.92,11.95,25.44,25.49,24.01,35.79-.52,3.74-3,6.88-7.39,9.34Z"/><path class="e" d="M242.99,233.95c.16-.16,.32-.34,.48-.51-.85-3.33-1.21-7.01-1.03-10.78-.19-.12-.66-.35-1.33-.59-.02,4.15,.66,8.23,1.87,11.87Zm-1.63-3.18c.22,1.36,.53,2.7,.89,3.99,1.76,6.18,5.12,11.13,9.48,13.14,.03,.01,.05,.03,.09,.04,1.79,.8,3.61,1.08,5.42,.85,1.24-.17,2.44-.54,3.62-1.16,1.15-.6,2.23-1.39,3.25-2.38,.84-.8,1.65-1.74,2.38-2.8,2.18-3.09,3.8-7.15,4.63-11.76,2.4-13.08-2.2-26.69-10.24-30.36-.52-.24-1.05-.44-1.56-.58-1.76-.52-3.53-.52-5.27-.04-.77,.21-1.54,.51-2.28,.89-.85,.45-1.67,.99-2.45,1.65-.42,.36-.83,.75-1.24,1.18-3.14,3.23-5.51,8.21-6.59,14.09-.09,.48-.17,.95-.23,1.42-.01,.04,0,.09-.01,.14h-.02c-.13,.98-.23,1.97-.29,2.95-.19,2.99-.03,5.95,.42,8.74Zm28.68-3.63c-.09,1.09-.26,2.19-.45,3.28-.76,4.21-2.21,7.91-4.11,10.77-.68,1.03-1.42,1.94-2.22,2.74-.97,.98-2.02,1.76-3.12,2.34-2.46,1.22-5.04,1.37-7.49,.34-.09-.02-.16-.06-.25-.1-4.19-1.93-7.38-6.89-8.92-13.06-.85-3.33-1.21-7.01-1.03-10.78,.06-1.02,.14-2.04,.3-3.07,.07-.59,.17-1.17,.27-1.77,1.03-5.72,3.31-10.48,6.32-13.48,.98-.98,2.03-1.77,3.15-2.36,.74-.38,1.46-.65,2.21-.81,.41-.12,.81-.18,1.21-.21h.03c1.08-.1,2.14,.02,3.2,.36,.36,.11,.72,.26,1.09,.42,6.77,3.09,10.85,14.02,9.81,25.31,0,.03,0,.05,0,.09Z"/><g class="n"><path class="d" d="M200.35,214.49c-1.22,12.56,4.9,25.1,13.67,28,8.77,2.9,16.86-4.92,18.08-17.49,1.22-12.56-4.9-25.1-13.67-28-8.77-2.9-16.86,4.93-18.08,17.49Z"/></g><g class="n"><path class="d" d="M241.28,218.59c-1.22,12.62,4.19,25.44,12.09,28.64,7.9,3.2,15.28-4.44,16.5-17.06,1.22-12.62-4.19-25.44-12.09-28.64-7.89-3.2-15.28,4.44-16.5,17.06Z"/></g><path class="e" d="M199.64,221.92c.61,3.74,1.81,7.29,3.44,10.37,2.55,4.76,6.18,8.43,10.43,10.08,.28,.13,.57,.23,.86,.32,1.92,.64,3.84,.82,5.7,.59,1.04-.14,2.07-.41,3.07-.83,.82-.32,1.64-.75,2.44-1.25,5-3.28,8.31-9.63,9.1-17.46,.07-.71,.12-1.44,.14-2.16,.04-1,.03-1.99,0-2.97-.36-7.95-3.41-15.44-8.06-20.23-2.06-2.17-4.48-3.78-7.09-4.63-3.89-1.24-7.75-.73-11.24,1.53-4.51,2.94-7.64,8.42-8.77,15.2-.12,.72-.22,1.47-.3,2.22-.07,.8-.13,1.59-.14,2.36-.08,2.34,.07,4.63,.44,6.86Zm28.88,14.33c-1.11,1.48-2.39,2.71-3.81,3.65-.54,.34-1.11,.64-1.67,.89-2.61,1.16-5.42,1.31-8.21,.44-.31-.1-.61-.21-.91-.33-3.8-1.53-7.06-4.84-9.36-9.11-2.53-4.62-3.97-10.38-3.84-16.3,.01-.87,.07-1.75,.15-2.62,.12-1.23,.32-2.41,.58-3.56,.17-.81,.38-1.62,.65-2.38,0-.02,0-.03,0-.05,.41-1.33,.94-2.6,1.54-3.75,1.44-2.8,3.36-5.07,5.62-6.55,1.54-1.02,3.2-1.63,4.91-1.84,1.64-.22,3.32-.05,5,.48,2.33,.76,4.47,2.17,6.32,4.07,4.5,4.52,7.47,11.83,7.78,19.59,.05,1,.04,1.99-.02,2.99,0,.57-.05,1.14-.11,1.71-.5,4.9-2.12,9.3-4.51,12.52-.03,.06-.07,.11-.11,.16Z"/><path class="e" d="M243.5,222.95c-.32,.04-.66-.03-.96-.22h0c-.17-.11-4.28-2.55-10.56-.51-.74,.21-1.58-.16-1.84-.92-.26-.76,.16-1.58,.92-1.82,7.57-2.62,12.8,.65,13.03,.78,.67,.44,.87,1.34,.44,2.01-.23,.39-.62,.62-1.03,.68Z"/><path class="q" d="M233.25,250.97c-4.57,0-8.5-2.03-8.75-2.16-.56-.29-.77-.98-.48-1.54,.29-.56,.98-.77,1.54-.48,.08,.04,8.12,4.18,13.7,.05,.51-.37,1.22-.27,1.6,.24,.37,.51,.27,1.22-.24,1.6-2.34,1.73-4.94,2.3-7.37,2.3Z"/></g></g><g><path class="q" d="M1331.52,1074.71l2.41-.23c1.88-.18,3.28-3.28,3.13-6.93l-18.68-460.53-35.51-17.58,43.05,476c.32,5.45,2.8,9.55,5.61,9.28Z"/><path class="q" d="M318.42,1074.71l-2.41-.23c-1.88-.18-3.28-3.28-3.13-6.93l18.68-460.53,35.51-17.58-43.04,476c-.32,5.45-2.8,9.55-5.61,9.28Z"/><path class="p" d="M1405.99,611.85c0,32.42-262.86,58.7-587.1,58.7s-587.1-26.28-587.1-58.7,262.85-58.7,587.1-58.7,587.1,26.28,587.1,58.7Z"/><rect class="p" x="231.79" y="584.78" width="1174.21" height="27.07"/><path class="g" d="M1405.99,584.78c0,32.42-262.86,58.7-587.1,58.7s-587.1-26.28-587.1-58.7,262.85-58.7,587.1-58.7,587.1,26.28,587.1,58.7Z"/><path class="s" d="M398.5,627.59c-.06,0-.12,0-.19,0-49.38-5.06-88.83-10.9-117.28-17.35-.98-.22-1.6-1.2-1.38-2.18,.22-.98,1.2-1.59,2.18-1.38,28.3,6.42,67.61,12.23,116.84,17.28,1,.1,1.73,1,1.63,2-.1,.94-.89,1.64-1.81,1.64Z"/><path class="s" d="M1306.43,619.32c-.88,0-1.66-.64-1.8-1.54-.16-1,.52-1.93,1.52-2.09,.57-.09,57.52-9.08,78.91-17.26,.94-.36,2,.11,2.36,1.05,.36,.94-.11,2-1.05,2.36-21.74,8.32-77.29,17.09-79.65,17.46-.1,.01-.19,.02-.29,.02Z"/></g><g><path class="q" d="M845.7,1035.85s-.94,20.48-14.92,25.98c-13.99,5.49-54.27,9.88-39.53,23.37,8.46,7.74,49.16,3.69,60.62,3.93,11.46,.24,22.12,5.45,30.8-2.04,9.54-8.25,1.04-50.45,1.04-50.45,0,0-10,4.95-18.89,4.53-12.81-.6-19.12-5.32-19.12-5.32Z"/><path class="q" d="M723.44,1056.88s-1.16,20.47-15.2,25.81c-14.05,5.34-54.38,9.29-39.78,22.94,8.37,7.83,49.12,4.22,60.57,4.58,11.46,.36,22.06,5.69,30.82-1.71,9.63-8.14,1.59-50.43,1.59-50.43,0,0-10.05,4.84-18.93,4.33-12.81-.74-19.06-5.52-19.06-5.52Z"/><path class="f" d="M732.79,1073.82c-23.68-2.7-41.06-23.55-39.43-47.32,9.24-134.33,21.74-201.99,67.13-257.97,29.16-35.96,71.74-70.09,122.81-88.74,44.03-16.08,81.13-22.88,129.27-21.55,78.5,2.17,114.3,16.97,114.3,16.97,48.12,126.97-45.11,135.22-113.32,132.7-2.25-.08-4.52-.15-6.79-.2-41.35-.95-115.37,3.19-146.57,41.67-24.7,30.47-43.83,74.59-60.34,191.21-3.17,22.38-23.53,38.19-45.99,35.63l-21.07-2.4Z"/><path class="f" d="M851.34,1050.23c-23.67-2.77-41.29-22.01-39.97-43.67,7.46-122.37,19.05-183.9,63.62-234.35,28.63-32.41,69.6-55.1,121.78-67.44,37.23-8.8,80.48-12.34,128.54-10.5,78.37,3,114.13-2.37,114.13-2.37,52.65,206.14-176.84,96.55-241.84,151.58-28.32,23.98-64.81,71.18-79.77,177.31-2.87,20.37-22.99,34.52-45.44,31.89l-21.06-2.46Z"/><path class="j" d="M813.71,965.94l-.88-.17c.06-.3,6.17-30.74,31.63-62.55,14.95-18.68,33.56-34.17,55.3-46.05,27.16-14.85,59.32-24.06,95.58-27.39l.08,.9c-36.14,3.31-68.18,12.49-95.23,27.28-21.63,11.82-40.15,27.24-55.02,45.82-25.33,31.63-31.39,61.86-31.45,62.16Z"/><path class="o" d="M1088.94,316.72l-7.55-32.68-2.2-9.51-12.91-55.94-6.24,54.24-3.74,32.56-1.19,10.31c-.8,7-5.19,8.16-10.84,13.87-2.29,2.32-16.89,16.3-2.07,24.2,18.46,9.84,55.07-.3,69.86-16.02-.1-.03-20.69-10.45-23.13-21.01Z"/><path class="o" d="M1019.63,229.31c6.58-31.78,33.28-53.13,59.64-47.67,26.36,5.45,42.39,35.64,35.82,67.43-6.58,31.78-33.28,53.13-59.64,47.67-26.36-5.46-42.4-35.64-35.82-67.43Z"/><path class="q" d="M1041.5,216.75c-27.87-1-40.17-18.03-39.39-32.9,.99-19.07,14.22-35.05,27.66-26.95,13.44,8.11,8.73-9.69,22.28-10.54,25.34-1.59,28.73,16.59,49.19,18.97,26.99,3.14,54.54,50.53,29.42,81.79,0,0-67.16-29.58-89.17-30.37Z"/><path class="q" d="M1018.17,195.73s27.59,30.78,22.48,46.58c-5.1,15.8-4.57,22.17,12.14,32.03,16.71,9.86,.37,22.67,23.41,25.37,23.04,2.71,53.36-22.52,56.66-67.42,1.84-25.03-11.33-42.47-11.33-42.47l-103.36,5.91Z"/><path class="o" d="M1025.71,240.49c3.72-4.53,10.01-5.5,14.05-2.18,4.04,3.32,4.31,9.68,.59,14.21-3.72,4.53-10.01,5.5-14.05,2.18-4.05-3.32-4.31-9.68-.59-14.21Z"/><path class="q" d="M1124.8,240.74c-.29,0-.56-.18-.67-.47-2.19-5.84-8.41-8.46-8.47-8.49-.37-.15-.54-.57-.39-.94,.15-.37,.57-.54,.94-.39,.28,.11,6.86,2.89,9.27,9.31,.14,.37-.05,.78-.42,.92-.08,.03-.17,.05-.25,.05Z"/><path class="q" d="M1115.44,228.39c-.33,0-.63-.23-.7-.57-.08-.39,.17-.77,.56-.85,.07-.02,7.44-1.61,7.69-7.53,.02-.4,.34-.7,.75-.69,.4,.02,.7,.35,.69,.75-.3,7.04-8.76,8.86-8.84,8.87-.05,.01-.1,.01-.15,.01Z"/><path class="q" d="M1031.9,153.25c-.62,0-1.26-.12-1.92-.37-2.37-.9-4.09-2.28-5.75-3.62-3.07-2.48-5.72-4.62-11.93-3.11-.4,.1-.81-.15-.91-.55-.1-.4,.15-.81,.55-.91,6.93-1.69,10.13,.9,13.23,3.4,1.57,1.27,3.18,2.57,5.33,3.39,1.09,.41,2.07,.36,3-.17,3.46-1.98,4.8-9.6,4.82-9.67,.07-.41,.45-.68,.87-.61,.41,.07,.69,.46,.62,.87-.06,.34-1.48,8.39-5.55,10.72-.75,.43-1.54,.64-2.36,.64Z"/><path class="q" d="M1101.76,156.87c-11.11,0-19.32-8.87-19.69-9.26-.28-.31-.26-.78,.05-1.06,.31-.28,.78-.26,1.06,.05,.09,.1,8.99,9.67,20.23,8.7,.42-.04,.78,.27,.81,.69,.04,.41-.27,.78-.68,.81-.6,.05-1.2,.08-1.79,.08Z"/><path class="q" d="M1032.59,257.24c-1.5,0-2.48-.41-2.54-.43-.18-.08-.26-.28-.18-.45,.07-.18,.28-.26,.45-.18,.25,.1,6.12,2.46,11-5.71,.1-.16,.31-.22,.48-.12,.16,.1,.22,.31,.12,.47-2.71,4.53-5.77,5.93-7.87,6.3-.53,.09-1.02,.13-1.46,.13Z"/><path class="i" d="M1080.89,320.29c-122.68,0-146.65,80.92-146.65,80.92,0,0,38.88,11.1,38.75,23.78-.45,43.42-27.33,165.91-21.79,241.08,0,0,130.84,217.68,302.3,35.62,0,0,69.99-381.4-172.6-381.4Z"/><g><g><polygon class="q" points="1111.79 1054.22 1133.42 1054.22 1133.42 818.49 1119.22 834.16 1111.79 1054.22"/><path class="q" d="M1057.69,1067.15s96.93,1.74,129.25,1.99c3.57,.03,6.13-4.88,6.13-8.45h0c0-3.57-5.21-7.81-8.78-7.79-31.65,.17-126.59,1.32-126.59,1.32-3.57,0-6.46,2.89-6.46,6.46h0c0,3.57,2.89,6.46,6.46,6.46Z"/><path class="q" d="M1188.43,1078.74c-1.18-7.09-7.39-11.6-14.58-11.6s-14.58,4.74-14.58,11.93c0,8.95,9.05,15.24,16.24,15.24s14.42-6.63,12.92-15.58Z"/><path class="q" d="M1085.04,1078.74c-1.18-7.09-7.39-11.6-14.58-11.6s-14.58,4.74-14.58,11.93c0,8.95,9.05,15.24,16.24,15.24s14.42-6.63,12.92-15.58Z"/><path class="q" d="M1165.73,833.03s3.48,15.41-32.31,20.38c-35.79,4.97-51.2-20.38-51.2-20.38h83.51Z"/></g><path class="s" d="M1079.32,809.13c-.38-43.28,6.3-218.22,67.93-229.65,24.19-4.48,109.77-15.54,121.28,21.2,19.62,62.58-33.59,217.81-33.59,217.81,0,0-4.8,16.5-22.32,18.34-17.52,1.84-231.57,8.04-233.68,0-8.32-31.68,69.86-18.86,100.37-27.7Z"/></g><path class="q" d="M1043.91,423.99c-1.05,5.06-26.45,4.06-56.74-2.23-30.28-6.29-53.98-15.49-52.93-20.55,1.05-5.06,26.45-4.06,56.74,2.23,30.28,6.29,53.98,15.49,52.93,20.55Z"/><path class="o" d="M749.55,569.09c-13.13-6.37,3.92-52.53,3.92-52.53,2.87-3.91,85.69,34.35,149.86-12.71,22.85-16.76,38.45-88.71,38.76-96.23,.02-.49,16.83-4.14,44.38,1.18,22.72,4.39,45.43,18.41,45.43,18.41-.55,13.61-12.22,69.03-31.21,103.7-39.27,71.71-174.51,91.24-251.14,38.19Z"/><g class="h"><path class="m" d="M915.6,561.18c-2.8,0-5.3-.93-7.01-2.84-4.02-4.5-2.15-12.76,4.18-18.42,6.33-5.66,14.75-6.61,18.77-2.12,4.02,4.5,2.15,12.76-4.18,18.42-3.64,3.26-7.97,4.95-11.76,4.95Zm8.93-23.33c-3.08,0-6.77,1.47-9.85,4.23-5.05,4.52-6.86,11.09-3.95,14.34,2.91,3.25,9.64,2.18,14.69-2.34,5.05-4.52,6.86-11.09,3.95-14.34-1.14-1.27-2.86-1.88-4.84-1.88Z"/></g><g><path class="o" d="M737.18,539.55h0c-2.17,3.73-6.99,5.01-10.72,2.84l-48.96-28.46c-3.73-2.17-5.01-6.99-2.84-10.72h0c2.17-3.73,6.99-5.01,10.72-2.84l48.96,28.46c3.73,2.17,5.01,6.99,2.84,10.72Z"/><path class="o" d="M747.27,522.19h0c-2.17,3.73-6.99,5.01-10.72,2.84l-63.48-36.89c-3.73-2.17-5.01-6.99-2.84-10.72h0c2.17-3.73,6.99-5.01,10.72-2.84l63.48,36.89c3.73,2.17,5.01,6.99,2.84,10.72Z"/><path class="o" d="M783.7,537.12l-2.6,1.02c-4.86,1.9-10.39-.53-12.28-5.38l-18.48-47.33c-1.9-4.86,.53-10.39,5.39-12.28l2.6-1.02c4.86-1.9,10.39,.53,12.28,5.39l18.48,47.33c1.9,4.86-.53,10.39-5.38,12.28Z"/><path class="o" d="M757.38,504.84h0c-2.17,3.73-6.99,5.01-10.72,2.84l-51.89-30.16c-3.73-2.17-5.01-6.99-2.84-10.72h0c2.17-3.73,6.99-5.01,10.72-2.84l51.9,30.16c3.73,2.17,5.01,6.99,2.84,10.72Z"/><path class="o" d="M763.33,570.5s-44.82,.2-64.58-24.77c-6.84-8.64,11.32-65.8,23.63-64.91,12.32,.9,58.33,31.56,58.33,31.56l-17.38,58.12Z"/><path class="o" d="M727.37,556.59l-.28,.47c-2.09,3.59-6.73,4.82-10.32,2.74l-39.55-22.98c-3.59-2.09-4.82-6.73-2.74-10.32l.28-.47c2.09-3.59,6.73-4.82,10.33-2.74l39.55,22.98c3.59,2.09,4.82,6.73,2.74,10.33Z"/></g></g><path class="o" d="M508.1,504.89s44.46,5.82,54.04,17.4c9.57,11.58,13.05,33.62,5.59,27.7-7.46-5.92-14.9-16.12-14.9-16.12,0,0,14.87,22.53,8.1,23.73-6.78,1.2-19.52-18.52-19.52-18.52,0,0,15.56,28.22,8.8,27.28-6.77-.94-18.44-22.47-18.44-22.47,0,0,13.43,26.84,5.6,25.56-7.84-1.28-10.96-22.25-17.73-21.05-6.78,1.2-27.49,11.56-33.11-6.86l21.59-36.64Z"/><g><path class="f" d="M357.56,577.21h142.57c2.99,0,5.64-1.9,6.58-4.71l29.63-88.48c1.49-4.46-1.85-9.06-6.58-9.06h-137.11c-6.25,0-11.79,3.97-13.77,9.86l-27.9,83.33c-1.49,4.46,1.85,9.06,6.58,9.06Z"/><path class="f" d="M366.51,577.21h142.57c2.99,0,5.64-1.9,6.58-4.71l29.63-88.48c1.49-4.46-1.85-9.06-6.58-9.06h-137.11c-6.25,0-11.79,3.97-13.77,9.86l-27.9,83.33c-1.49,4.46,1.85,9.06,6.58,9.06Z"/><path class="k" d="M466.41,523.19c0-3.36-3.88-4.73-7.26-4.73s-8.91,3.69-8.87,8.4c.04,5.08,4.01,5.74,7.39,5.74s8.74-5.13,8.74-9.41Z"/><path class="f" d="M305.81,564.7h199.16c2.31,0,4.19,1.88,4.19,4.19v.06c0,4.55-3.7,8.25-8.25,8.25h-195.1v-12.5h0Z" transform="translate(814.96 1141.91) rotate(-180)"/><path class="d" d="M376.65,519.69l-.9-.24c.29-1.08,7.09-26.61,11.68-34.86,4.65-8.37,10.34-10.02,10.58-10.08l.25,.89c-.05,.01-5.57,1.64-10.02,9.64-4.53,8.15-11.52,34.38-11.59,34.65Z"/><path class="d" d="M355.58,565.17v-.93c4.37,0,5.67-1.69,5.82-1.93l11.1-33.13,.88,.29-11.11,33.18c-.08,.17-1.4,2.51-6.69,2.51Z"/></g><g><path class="q" d="M843.37,159.75l-124.54,10.69c-2.74,.23-7.2-2.26-7.8-4.94-1.23-5.51,3.96-7.56,6.7-7.79l124.78-7.92c2.74-.23,5.18,1.81,5.41,4.56h0c.23,2.74-1.82,5.18-4.56,5.41Z"/><path class="q" d="M825.8,137.68l-94,8.07c-2.07,.18-5.45-1.84-5.91-4-.95-4.43,2.96-6.05,5.03-6.23l94.2-5.84c2.07-.18,3.92,1.48,4.11,3.68h0c.19,2.2-1.35,4.15-3.42,4.33Z"/><path class="q" d="M829.83,184.65l-94,8.07c-2.07,.18-5.45-1.84-5.91-4-.95-4.43,2.96-6.05,5.03-6.23l94.2-5.84c2.07-.18,3.92,1.48,4.11,3.68h0c.19,2.2-1.35,4.15-3.42,4.33Z"/></g></g></g></g></svg>